<?xml version="1.0" encoding="UTF-8" standalone="no"?>
<svg
   version="1.1"
   id="svg2"
   xml:space="preserve"
   width="750.97699"
   height="750.97699"
   viewBox="0 0 750.97699 750.97701"
   sodipodi:docname="epic-games.svg"
   inkscape:version="1.2.2 (732a01da63, 2022-12-09)"
   xmlns:inkscape="http://www.inkscape.org/namespaces/inkscape"
   xmlns:sodipodi="http://sodipodi.sourceforge.net/DTD/sodipodi-0.dtd"
   xmlns="http://www.w3.org/2000/svg"
   xmlns:svg="http://www.w3.org/2000/svg"
   xmlns:rdf="http://www.w3.org/1999/02/22-rdf-syntax-ns#"
   xmlns:cc="http://creativecommons.org/ns#"
   xmlns:dc="http://purl.org/dc/elements/1.1/"><sodipodi:namedview
     id="namedview23"
     pagecolor="#ffffff"
     bordercolor="#666666"
     borderopacity="1.0"
     inkscape:showpageshadow="2"
     inkscape:pageopacity="0.0"
     inkscape:pagecheckerboard="0"
     inkscape:deskcolor="#d1d1d1"
     showgrid="false"
     inkscape:zoom="0.88885387"
     inkscape:cx="172.6943"
     inkscape:cy="338.07582"
     inkscape:window-width="2560"
     inkscape:window-height="1369"
     inkscape:window-x="1912"
     inkscape:window-y="-8"
     inkscape:window-maximized="1"
     inkscape:current-layer="svg2" /><metadata
     id="metadata8"><rdf:RDF><cc:Work
         rdf:about=""><dc:format>image/svg+xml</dc:format><dc:type
           rdf:resource="http://purl.org/dc/dcmitype/StillImage" /></cc:Work></rdf:RDF></metadata><defs
     id="defs6"><clipPath
       clipPathUnits="userSpaceOnUse"
       id="clipPath215"><g
         id="g219"
         style="stroke-width:1"><path
           d="M 0,790.889 H 900 V 0 H 0 Z"
           id="path217"
           style="stroke-width:1" /></g></clipPath><clipPath
       clipPathUnits="userSpaceOnUse"
       id="clipPath221"><g
         id="g225"
         style="stroke-width:1"><path
           d="M 0,790.889 H 900 V 0 H 0 Z"
           id="path223"
           style="stroke-width:1" /></g></clipPath><clipPath
       clipPathUnits="userSpaceOnUse"
       id="clipPath227"><g
         id="g231"
         style="stroke-width:1"><path
           d="M 0,790.889 H 900 V 0 H 0 Z"
           id="path229"
           style="stroke-width:1" /></g></clipPath><clipPath
       clipPathUnits="userSpaceOnUse"
       id="clipPath233"><g
         id="g237"
         style="stroke-width:1"><path
           d="M 0,790.889 H 900 V 0 H 0 Z"
           id="path235"
           style="stroke-width:1" /></g></clipPath><clipPath
       clipPathUnits="userSpaceOnUse"
       id="clipPath239"><g
         id="g243"
         style="stroke-width:1"><path
           d="M 0,790.889 H 900 V 0 H 0 Z"
           id="path241"
           style="stroke-width:1" /></g></clipPath><clipPath
       clipPathUnits="userSpaceOnUse"
       id="clipPath245"><g
         id="g249"
         style="stroke-width:1"><path
           d="M 0,790.889 H 900 V 0 H 0 Z"
           id="path247"
           style="stroke-width:1" /></g></clipPath><clipPath
       clipPathUnits="userSpaceOnUse"
       id="clipPath251"><g
         id="g255"
         style="stroke-width:1"><path
           d="M 0,790.889 H 900 V 0 H 0 Z"
           id="path253"
           style="stroke-width:1" /></g></clipPath></defs><path
     id="path24"
     clip-path="none"
     style="fill:#ffffff;fill-opacity:1;fill-rule:evenodd;stroke:none;stroke-width:1.33333"
     d="M 110.67699,-3.0819847e-4 C 67.749036,-3.0819847e-4 51.905503,15.842758 51.905503,58.790717 V 577.02509 c 0,4.85999 0.195667,9.37398 0.625,13.55664 0.977333,9.37466 1.1622,18.45812 9.880866,28.80078 0.852,1.01333 9.751947,7.63868 9.751947,7.63868 4.788,2.348 8.059,4.07666 13.458986,6.25 L 346.41527,742.53485 c 13.53865,6.20667 19.20184,8.62631 29.03516,8.43164 h 0.0371 0.0391 c 9.83332,0.19467 15.49517,-2.22497 29.03516,-8.43164 l 260.7929,-109.26366 c 5.40132,-2.17334 8.66965,-3.902 13.45898,-6.25 0,0 8.90128,-6.62535 9.75195,-7.63868 8.71867,-10.34266 8.90157,-19.42612 9.87891,-28.80078 0.42933,-4.18266 0.62696,-8.69665 0.62696,-13.55664 V 58.790717 c 0,-42.947959 -15.84292,-58.79102519847 -58.76954,-58.79102519847 z M 528.68285,97.327823 h 21.29297 c 35.60663,0 52.79883,17.277927 52.79883,53.060547 v 58.82617 h -42.97656 v -56.35937 c 0,-11.51732 -5.32364,-16.86133 -16.37696,-16.86133 h -7.37109 c -11.45999,0 -16.7832,5.34401 -16.7832,16.86133 v 181.81641 c 0,11.51865 5.32321,16.86328 16.7832,16.86328 h 8.19336 c 11.04665,0 16.37109,-5.34463 16.37109,-16.86328 v -64.9922 h 42.98243 v 67.04493 c 0,35.79063 -17.59888,53.4746 -53.21486,53.4746 h -21.69921 c -35.60796,0 -53.2168,-17.68397 -53.2168,-53.4746 V 150.80244 c 0,-35.78931 17.60884,-53.474617 53.2168,-53.474617 z m -381.30078,2.468746 h 97.42773 v 39.896501 h -53.63086 v 81.44726 h 51.57813 v 39.89648 h -51.57813 v 86.79688 h 54.44726 v 39.89844 h -98.24413 z m 119.38867,0 h 68.76953 c 35.61464,0 53.21485,17.685321 53.21485,53.474621 v 76.51171 c 0,35.78263 -17.60021,53.4668 -53.21485,53.4668 h -24.96875 v 104.48243 h -43.80078 z m 141.74219,0 h 43.80664 V 387.73213 H 408.51293 Z M 310.57152,138.46259 V 244.5915 h 18.01367 c 11.05333,0 16.36915,-5.35244 16.36915,-16.8711 v -72.39648 c 0,-11.51599 -5.31582,-16.86133 -16.36915,-16.86133 z m -120.6289,317.77148 h 1.30859 1.1875 1.30664 1.30859 l 1.31641,0.1192 1.30859,0.12107 h 1.18751 l 1.18749,0.1172 1.3086,0.24024 1.07617,0.11906 1.1875,0.24024 1.18945,0.23828 1.07423,0.23828 1.06836,0.23828 1.0703,0.24023 1.07618,0.35939 1.06836,0.23828 0.94921,0.35937 1.07617,0.35741 1.06836,0.47852 1.06836,0.47852 1.07618,0.47851 1.0703,0.59767 1.06642,0.4785 0.95898,0.59767 1.0664,0.59765 0.94923,0.59571 1.07617,0.5996 0.94922,0.7168 0.94921,0.59765 0.95704,0.7168 0.94921,0.71875 0.95508,0.83595 0.95118,0.71678 -0.71875,0.95704 -0.82813,0.83594 -0.71875,0.95702 -0.82812,0.95508 -0.71876,0.95704 -0.70897,0.83594 -0.8379,0.95702 -0.70898,0.95508 -0.71875,0.83984 -0.83008,0.95508 -0.71484,0.95508 -0.83204,0.95703 -0.7168,0.83789 -0.70897,0.95508 -0.83595,0.95703 -0.71289,0.95508 -0.83594,0.83789 -0.71093,0.95508 -0.95508,-0.7168 -0.94921,-0.83593 -0.95704,-0.59961 -0.94922,-0.7168 -0.94922,-0.59766 -0.95507,-0.59765 -0.95117,-0.59571 -1.06836,-0.5996 -0.95508,-0.47657 -0.94923,-0.47851 -0.95703,-0.35937 -1.06836,-0.35939 -1.06836,-0.35741 -1.07617,-0.23828 -1.18749,-0.24024 -1.18946,-0.23828 -1.18945,-0.1192 -1.30664,-0.12107 -1.31445,-0.1172 h -1.3086 -1.1875 l -1.18945,0.1172 -1.07423,0.12107 -1.18945,0.23829 -1.06836,0.24023 -1.07617,0.35743 -1.06835,0.35741 -1.06836,0.47852 -1.07032,0.47852 -0.95508,0.59765 -0.94921,0.59766 -0.95703,0.59961 -0.83008,0.71484 -0.83595,0.71875 -0.83008,0.7168 -0.71678,0.83594 -0.83008,0.83788 -0.7168,0.95508 -0.5918,0.8379 -0.59766,0.95508 -0.58984,1.07617 -0.59765,0.95703 -0.47852,1.07617 -0.35743,1.07617 -0.47265,1.07422 -0.35937,1.19532 -0.23828,1.18945 -0.23828,1.07421 -0.24024,1.31642 -0.1192,1.1953 -0.11134,1.19336 v 1.3164 0.2383 1.19725 l 0.11134,1.19336 0.1192,1.07617 0.12106,1.19727 0.23828,1.07423 0.24024,1.07617 0.23828,1.07616 0.35743,1.07617 0.35351,0.95508 0.47852,1.19532 0.47656,1.07618 0.5918,1.07616 0.5957,0.95704 0.59766,0.95508 0.71093,0.95702 0.7168,0.83594 0.83008,0.83789 0.71875,0.83593 0.82812,0.7168 0.95704,0.71875 0.94921,0.7168 0.94923,0.59765 0.95506,0.59767 1.07032,0.47851 1.06836,0.47852 1.07422,0.47656 1.18945,0.35937 1.18751,0.35743 1.19726,0.24022 1.1875,0.24024 1.1875,0.1172 1.30859,0.12107 h 1.3086 1.42577 l 1.31642,-0.12107 1.30858,-0.1172 1.18751,-0.12106 1.18749,-0.24024 1.19532,-0.23828 1.18946,-0.35742 1.06836,-0.24024 1.0703,-0.47656 0.95508,-0.47852 1.06836,-0.4785 0.83594,-0.47852 0.95117,-0.59766 v -1.19532 -1.1953 -1.19532 -1.19531 -1.31445 -1.19531 -1.19532 -1.19531 -1.19532 h -1.18945 -1.07422 -1.18945 -1.18945 -1.18751 -1.07617 -1.18946 -1.18749 -1.18751 -1.07421 -1.18945 -1.18946 -1.18945 -1.07421 -1.18946 v -1.1953 -1.07618 -1.19532 -1.1953 -1.19531 -1.07617 -1.19532 -1.19531 -1.19532 -1.07812 -1.19336 -1.19531 -1.19532 -1.07617 -1.18749 h 1.18946 1.1953 1.18946 1.18554 1.18946 1.18945 1.19532 1.18749 1.18751 1.18945 1.19531 1.18749 1.18946 1.1875 1.19531 1.18945 1.18751 1.18945 1.19336 1.18946 1.18749 1.18945 1.19336 1.18946 1.18945 1.18751 1.1953 1.18751 1.18945 1.18946 1.19336 1.18945 1.18945 v 1.18749 1.19336 1.19727 1.07617 1.19336 1.19727 1.19336 1.19726 1.19531 1.07423 1.19726 1.19531 1.19531 1.19532 1.1953 1.19532 1.07422 1.19726 1.19532 1.19531 1.19531 1.19532 1.1953 1.07618 1.19532 1.1953 1.19531 1.19532 1.19531 1.07617 1.19532 1.19531 1.19532 l -0.83008,0.71678 -0.95704,0.7168 -0.83006,0.59766 -0.95508,0.71876 -0.94923,0.59569 -0.94921,0.71876 -0.95704,0.59765 -0.94922,0.59766 -1.07617,0.5957 -1.06836,0.5996 -1.07031,0.59767 -1.07422,0.47069 -1.07031,0.59767 -1.18751,0.47656 -1.06836,0.48047 -1.1953,0.47656 -1.06836,0.47852 -1.07031,0.35937 -1.07423,0.35743 -1.0703,0.36132 -1.18751,0.35742 -1.06836,0.35938 -1.19531,0.23828 -1.07032,0.23828 -1.18749,0.24024 -1.19531,0.23828 -1.18945,0.11906 -1.30665,0.12107 -1.18944,0.1192 -1.30666,0.1192 -1.19725,0.1192 -1.30665,0.1192 h -1.30664 -1.31055 -1.30664 -1.19531 l -1.1875,-0.1192 -1.30859,-0.1192 -1.18751,-0.1192 -1.18749,-0.1192 -1.19727,-0.12107 -1.1875,-0.23828 -1.18946,-0.24022 -1.06834,-0.23828 -1.19532,-0.23828 -1.06836,-0.35939 -1.1875,-0.23828 -1.07617,-0.35937 -1.07032,-0.47851 -1.06836,-0.35939 -1.18749,-0.4785 -1.07618,-0.47656 -1.06836,-0.47658 -1.06836,-0.4785 -1.07812,-0.59767 -0.94726,-0.59179 -1.06836,-0.59766 -0.95704,-0.5996 -0.94922,-0.59571 -0.95508,-0.71875 -0.94921,-0.71485 -0.95117,-0.71875 -0.83594,-0.7168 -0.83008,-0.71678 -0.83789,-0.8379 -0.82812,-0.7168 -0.83789,-0.83593 -0.83008,-0.83789 -0.7168,-0.83594 -0.71094,-0.95704 -0.7168,-0.83593 -0.59765,-0.95703 -0.71095,-0.95704 -0.59569,-0.95508 -0.5918,-0.95702 -0.59765,-1.07618 -0.59766,-0.95508 -0.4707,-1.07616 -0.47852,-1.07617 -0.47656,-1.07617 -0.47266,-1.07423 -0.35742,-0.95703 -0.47852,-1.07617 -0.24023,-1.07617 -0.35156,-1.07422 -0.23828,-1.19532 -0.35939,-1.07812 -0.23828,-1.19336 -0.1192,-1.07617 -0.24024,-1.19727 -0.1172,-1.07421 -0.12106,-1.19532 -0.11334,-1.19531 -0.1172,-1.19532 v -1.31445 -1.19725 -0.2383 -1.1953 l 0.1172,-1.31446 v -1.1953 l 0.11334,-1.19532 0.12106,-1.31446 0.23828,-1.18945 0.1192,-1.19531 0.23828,-1.07617 0.35938,-1.19532 0.23828,-1.19531 0.35156,-1.07617 0.35937,-1.19531 0.35743,-1.07422 0.47852,-1.19727 0.47265,-1.07421 0.47656,-1.07618 0.47852,-1.07617 0.47071,-1.07617 0.59765,-1.07618 0.59765,-0.95508 0.5918,-0.95702 0.5957,-0.95703 0.59961,-0.95508 0.70899,-0.95703 0.7168,-0.95508 0.71093,-0.95704 0.7168,-0.83788 0.83008,-0.83594 0.71679,-0.8379 0.83204,-0.83397 0.83593,-0.83985 0.82813,-0.71484 0.95703,-0.8379 0.83008,-0.7168 0.94921,-0.71678 0.95703,-0.59767 0.94923,-0.71875 0.95702,-0.59569 0.94727,-0.59767 1.07032,-0.5996 1.07616,-0.59766 1.06641,-0.5957 1.07031,-0.47852 1.07423,-0.47852 1.18945,-0.59765 0.94921,-0.35743 1.18751,-0.36132 1.07812,-0.47656 1.06836,-0.24024 1.06836,-0.35937 1.19336,-0.23828 1.07031,-0.35743 1.1875,-0.24022 1.18946,-0.1192 1.1953,-0.23828 1.18946,-0.12107 1.18554,-0.1172 1.18946,-0.12107 z m 375.13476,0.24024 h 1.18946 1.31445 1.30859 1.30664 l 1.3086,0.1172 1.30858,0.12107 h 1.18751 l 1.31445,0.1192 1.1875,0.23828 1.3086,0.12106 1.18945,0.23828 1.07617,0.23828 1.1875,0.23828 1.1875,0.24023 1.07031,0.24024 1.19336,0.35743 1.07032,0.35937 1.06836,0.24023 1.19531,0.47657 1.07032,0.35937 1.0664,0.47656 1.0703,0.47852 1.19532,0.47851 1.06836,0.59765 0.94922,0.47852 1.07617,0.59766 1.07032,0.59766 0.94921,0.59766 1.07422,0.71874 0.95117,0.59571 0.95508,0.71875 0.94923,0.7168 0.94726,0.7168 -0.70898,0.95702 -0.59767,0.95508 -0.70897,0.95703 -0.71876,0.95703 -0.70898,1.07422 -0.59766,0.95703 -0.71875,0.95704 -0.71093,0.95507 -0.59571,0.95704 -0.71093,0.95702 -0.7168,0.95508 -0.59766,0.95703 -0.71094,1.07617 -0.71679,0.95508 -0.71095,0.95703 -0.59569,0.95508 -0.71095,0.95704 -0.95702,-0.7168 -1.06836,-0.59961 -0.94922,-0.59571 -0.95704,-0.71875 -1.06836,-0.47656 -0.95702,-0.59961 -1.06836,-0.47851 -0.94922,-0.47657 -1.07617,-0.47851 -0.94923,-0.47852 -1.0664,-0.35742 -0.95704,-0.47851 -1.30858,-0.35743 -1.18946,-0.35937 -1.1875,-0.35743 -1.19531,-0.24022 -1.18751,-0.24024 -1.18945,-0.23828 -1.18749,-0.12107 -1.19531,-0.11907 -1.06836,-0.1192 h -1.18945 -1.42774 l -1.30665,0.23828 -1.19725,0.24024 -1.06642,0.23828 -0.94921,0.47851 -0.83789,0.47852 -1.07032,0.95703 -0.71679,1.07617 -0.46876,1.07617 -0.12107,1.19336 v 0.24024 l 0.12107,1.55468 0.58985,1.31446 0.47851,0.7168 0.82813,0.83789 1.07618,0.59571 0.94921,0.59765 1.18751,0.47852 1.3164,0.47851 1.42773,0.47852 0.94923,0.23828 0.94921,0.35937 1.07617,0.23828 1.06836,0.35937 1.1875,0.23828 1.31641,0.35939 1.30664,0.35741 1.30859,0.35938 1.30664,0.24024 1.1875,0.35742 1.30859,0.35938 1.19532,0.23828 1.18945,0.35937 1.1875,0.35741 1.06836,0.35939 1.19726,0.35937 1.06836,0.35742 1.06836,0.35938 1.31446,0.4707 1.1875,0.59765 1.18946,0.47852 1.18945,0.59765 1.07421,0.59767 1.07031,0.59765 0.94727,0.59766 0.95704,0.7168 0.95117,0.59765 0.94921,0.83789 0.95508,0.83594 0.83008,0.95702 0.83594,0.83595 0.71093,0.95703 0.7168,1.07422 0.58984,0.95703 0.59961,1.07617 0.47656,0.95703 0.35938,1.07423 0.35157,1.07616 0.23828,1.07617 0.23828,1.19532 0.24023,1.19531 0.1192,1.19532 0.11906,1.31445 v 1.31445 0.24023 1.31445 l -0.11906,1.31446 -0.1192,1.19726 -0.11907,1.31251 -0.24024,1.19727 -0.35741,1.19334 -0.23243,1.07618 -0.35937,1.19532 -0.47656,1.07617 -0.48047,0.95899 -0.47071,1.07421 -0.5957,0.95508 -0.59766,0.95703 -0.71093,0.95702 -0.59961,0.95508 -0.70899,0.83595 -0.83593,0.83788 -0.71095,0.7168 -0.95508,0.83789 -0.83007,0.7168 -0.95704,0.71875 -0.94921,0.58789 -0.94923,0.71875 -1.07616,0.59571 -1.06836,0.48046 -1.06836,0.59571 -1.19726,0.47851 -1.18751,0.48048 -1.18749,0.35741 -1.18751,0.35937 -1.07617,0.35743 -1.18946,0.24024 -1.06836,0.23828 -1.06836,0.23828 -1.1953,0.24023 -1.18946,0.1192 -1.06836,0.11906 -1.1953,0.12107 -1.30664,0.1192 -1.18946,0.1192 h -1.18945 -1.30664 -1.31445 -1.18946 l -1.18945,-0.1192 h -1.30664 l -1.18751,-0.1192 -1.1953,-0.12107 -1.3086,-0.11906 -1.1875,-0.23828 -1.1875,-0.12107 -1.19727,-0.23828 -1.18945,-0.23828 -1.1875,-0.24024 -1.1875,-0.23828 -1.19531,-0.35743 -1.06836,-0.24022 -1.18945,-0.35938 -1.18946,-0.35938 -1.07422,-0.47851 -1.1875,-0.35743 -1.06836,-0.35742 -1.18945,-0.47851 -1.07617,-0.47852 -1.06836,-0.47852 -1.07031,-0.58984 -1.07423,-0.47852 -1.06836,-0.5996 -0.94921,-0.59571 -1.07617,-0.59765 -0.94922,-0.59765 -0.95704,-0.59767 -0.94921,-0.71679 -0.94923,-0.71876 -0.95506,-0.71678 -0.95118,-0.7168 -0.83594,-0.7168 -0.94922,-0.83594 0.7168,-0.95704 0.83008,-0.83788 0.71679,-0.95704 0.83008,-0.95508 0.7168,-0.83593 0.71093,-0.95703 0.83595,-0.95704 0.71093,-0.83593 0.83594,-0.95508 0.71094,-0.83789 0.83594,-0.95703 0.71093,-0.95703 0.7168,-0.83594 0.83008,-0.95507 0.7168,-0.95704 0.83007,-0.83789 0.7168,-0.95507 0.94922,0.71679 1.07031,0.71876 0.95508,0.71678 1.07031,0.7168 0.95508,0.59766 1.07032,0.7168 0.94726,0.59765 1.07812,0.47656 0.94727,0.59961 1.06836,0.47852 1.07617,0.47656 1.06836,0.48047 1.07031,0.35743 1.07617,0.47852 1.1875,0.35741 1.18945,0.35937 1.06836,0.35743 1.19532,0.24023 1.18749,0.24024 1.18751,0.23828 1.30859,0.1192 1.19532,0.23828 h 1.18945 l 1.30664,0.11906 h 1.18945 1.42578 l 1.3086,-0.11906 1.1953,-0.23828 1.06836,-0.24024 1.06836,-0.23828 0.95704,-0.35938 0.83008,-0.47656 0.95703,-0.7168 0.70899,-0.83789 0.4785,-0.95703 0.35939,-1.07422 0.1172,-1.19727 v -0.23828 l -0.1172,-1.43359 -0.47852,-1.19726 -0.59765,-0.83594 -0.83008,-0.7168 -0.95704,-0.7168 -0.94922,-0.47852 -1.06836,-0.4785 -1.1953,-0.47852 -1.42774,-0.59571 -0.83008,-0.24023 -0.94726,-0.23828 -1.07618,-0.35937 -1.07032,-0.24024 -1.18749,-0.35743 -1.19532,-0.23828 -1.30664,-0.35937 -1.18945,-0.23828 -1.30859,-0.35937 -1.18751,-0.23828 -1.19726,-0.35938 -1.18555,-0.24024 -1.18945,-0.35742 -1.07616,-0.35742 -1.18751,-0.24024 -1.07031,-0.35937 -1.06836,-0.35743 -1.07617,-0.35937 -1.30664,-0.47851 -1.18945,-0.47852 -1.18946,-0.47852 -1.19336,-0.4785 -1.06836,-0.59571 -1.18945,-0.59765 -0.95508,-0.59767 -1.07031,-0.59765 -0.94922,-0.7168 -0.95508,-0.59766 -0.83008,-0.71874 -0.83594,-0.83594 -0.83008,-0.83789 -0.71874,-0.83789 -0.70899,-0.83594 -0.59765,-0.83594 -0.5918,-0.95703 -0.59766,-1.07421 -0.47852,-0.83008 -0.35741,-0.95704 -0.35157,-1.07616 -0.35938,-0.95508 -0.23828,-1.19532 -0.24022,-1.07618 -0.1192,-1.1953 -0.11907,-1.19531 -0.1192,-1.31445 v -1.31642 -0.23828 -1.1953 l 0.1192,-1.19532 0.11907,-1.07618 0.1192,-1.1953 0.24022,-1.07423 0.23828,-1.07617 0.35938,-1.07812 0.23829,-1.07422 0.47069,-1.07617 0.47852,-1.07617 0.47852,-1.07423 0.59179,-1.07812 0.59571,-1.07421 0.71093,-0.95704 0.71876,-0.95703 0.82812,-0.95508 0.83789,-0.83593 0.83008,-0.95704 0.95508,-0.83788 0.83007,-0.59767 0.95508,-0.71679 0.95117,-0.7168 0.94727,-0.59765 1.07617,-0.59767 1.07031,-0.4785 1.06836,-0.59766 1.07617,-0.47657 1.18751,-0.36132 1.18749,-0.47656 1.07618,-0.35939 0.94922,-0.24022 1.07031,-0.23828 1.07617,-0.23828 1.1875,-0.23828 1.06836,-0.24024 1.18945,-0.11907 1.19532,-0.1192 1.18749,-0.12107 z m -289.08788,0.83593 h 1.18749 1.07617 1.1875 1.1875 1.19727 1.06836 1.18749 1.18946 1.19532 1.0703 1.18555 1.18945 1.19532 1.06836 1.1875 1.18945 1.19531 1.06836 1.18945 l 0.47657,1.07618 0.47851,1.07421 0.47267,1.07617 0.47656,1.19727 0.35937,1.07423 0.47071,1.07617 0.4785,1.07616 0.47656,1.07617 0.48048,1.07618 0.4707,1.19336 0.47852,1.07813 0.47852,1.07421 0.3496,1.07618 0.47852,1.07617 0.47852,1.07617 0.4785,1.19336 0.47071,1.07618 0.47852,1.07616 0.47851,1.07617 0.4707,1.07617 0.35938,1.07423 0.47657,1.19727 0.47265,1.07616 0.47851,1.07617 0.47657,1.07423 0.47851,1.07617 0.47071,1.07617 0.47852,1.19531 0.35937,1.07617 0.47071,1.07422 0.47656,1.07617 0.4785,1.07813 0.47852,1.07422 0.47071,1.1953 0.47851,1.06836 0.47852,1.07814 0.35156,1.07421 0.47657,1.07617 0.48047,1.07618 0.47069,1.07617 0.47852,1.19531 0.47852,1.07617 0.47851,1.07423 0.4707,1.07616 0.35743,1.07617 0.47851,1.07617 0.4707,1.19336 0.47852,1.07618 0.47852,1.07617 0.47656,1.07617 0.47266,1.07618 0.47852,1.07421 0.35741,1.19727 0.47267,1.07617 0.47656,1.07421 0.4785,1.07618 0.47071,1.07617 0.47852,1.07617 0.47851,1.19532 0.47852,1.07616 0.35156,1.07618 0.47852,1.07422 0.47852,1.07812 0.47069,1.07422 0.47657,1.19532 0.47851,1.07617 0.47852,1.07617 0.47071,1.07618 0.35937,1.07421 0.47851,1.07617 0.4707,1.19531 0.47852,1.07617 0.47656,1.07618 0.47266,1.07617 0.47656,1.07421 0.47852,1.07032 0.35937,1.19336 0.47071,1.07618 0.47852,1.07617 0.47656,1.07812 h -1.18555 -1.19532 -1.07031 -1.1875 -1.19531 -1.18749 -1.18946 -1.06836 -1.19532 -1.18945 -1.18749 -1.18946 -1.19532 -1.06836 -1.18749 -1.18945 -1.19532 -1.1875 -1.07032 -1.18749 -1.19532 l -0.47069,-1.07812 -0.35938,-1.07617 -0.47657,-1.07618 -0.47851,-1.19336 -0.35352,-1.07032 -0.47656,-1.07421 -0.47852,-1.07617 -0.35156,-1.07618 -0.47852,-1.07617 -0.4785,-1.07617 -0.35743,-1.07422 -0.47071,-1.1953 -0.4785,-1.07618 -0.35939,-1.07617 -0.47851,-1.07617 h -1.1875 -1.18946 -1.18749 -1.18751 -1.07617 -1.18945 -1.1875 -1.1953 -1.18751 -1.18945 -1.1875 -1.18945 -1.19532 -1.18749 -1.06836 -1.19532 -1.18946 -1.18945 -1.18749 -1.19532 -1.18946 -1.18749 -1.18751 -1.18749 -1.07813 -1.18555 -1.18945 -1.19727 -1.18749 l -0.47071,1.07617 -0.35937,1.07617 -0.47852,1.07618 -0.47656,1.1953 -0.35156,1.07422 -0.47852,1.07617 -0.47851,1.07617 -0.35743,1.07618 -0.4707,1.07617 -0.48047,1.07421 -0.35741,1.07032 -0.47267,1.19336 -0.47656,1.07618 -0.35937,1.07617 -0.47852,1.07812 h -1.1875 -1.1875 -1.18946 -1.1953 -1.18751 -1.30859 -1.1875 -1.18946 -1.1953 -1.18751 -1.18749 -1.18946 -1.19726 -1.18555 -1.18749 -1.3086 -1.19727 -1.18749 -1.18946 -1.1875 l 0.4707,-1.07812 0.47851,-1.07617 0.47657,-1.07618 0.47266,-1.19336 0.35937,-1.07032 0.47852,-1.07421 0.47656,-1.07617 0.47071,-1.07618 0.4785,-1.07617 0.47852,-1.19531 0.47071,-1.07617 0.47851,-1.07421 0.35742,-1.07618 0.47852,-1.07617 0.4707,-1.07617 0.48048,-1.19532 0.47656,-1.07422 0.47265,-1.07812 0.47852,-1.07422 0.47656,-1.07618 0.35937,-1.07616 0.47071,-1.19532 0.47851,-1.07617 0.47852,-1.07617 0.4707,-1.07618 0.47851,-1.07421 0.47852,-1.07617 0.47071,-1.19727 0.35937,-1.07421 0.47852,-1.07618 0.47656,-1.07617 0.47265,-1.07617 0.47656,-1.07618 0.47852,-1.19336 0.47071,-1.07617 0.47851,-1.07617 0.35742,-1.07616 0.47852,-1.07423 0.4707,-1.07617 0.47852,-1.19531 0.47852,-1.07617 0.47069,-1.07618 0.47852,-1.07617 0.47852,-1.07421 0.35937,-1.07814 0.47071,-1.06836 0.47851,-1.1953 0.47657,-1.07422 0.47265,-1.07813 0.47656,-1.07617 0.47852,-1.07422 0.4707,-1.07617 0.35937,-1.19531 0.47852,-1.07617 0.47656,-1.07617 0.47267,-1.07423 0.4785,-1.07617 0.47656,-1.07616 0.47267,-1.19727 0.47656,-1.07423 0.35937,-1.07617 0.47656,-1.07617 0.47266,-1.07616 0.47657,-1.07618 0.48047,-1.19336 0.47069,-1.07617 0.47852,-1.07617 0.47852,-1.07618 0.3496,-1.07421 0.47852,-1.07813 0.47852,-1.19336 0.47851,-1.07618 0.4707,-1.07617 0.48047,-1.07616 0.47657,-1.07617 0.4707,-1.07423 0.35937,-1.19727 0.47852,-1.07617 0.47852,-1.07421 z m 68.57812,0.59571 h 1.1875 1.19531 1.07031 1.1875 1.18946 1.19336 1.0703 1.18751 1.19531 1.18945 1.06836 1.18751 1.19726 1.1875 1.06836 1.1875 1.19531 1.18945 1.06836 1.1875 1.19726 l 0.58986,0.95899 0.59765,1.07421 0.70898,0.94923 0.5996,1.07616 0.59767,0.95508 0.58984,1.07813 0.59765,0.94727 0.71094,1.07812 0.5957,0.95508 0.59962,0.95702 0.58984,1.06836 0.59765,0.95704 0.71095,1.07422 0.59765,0.95702 0.59765,1.06836 0.58984,0.95508 0.7168,0.95703 0.59962,1.07032 0.58984,0.95508 0.59765,1.07617 0.5918,0.95703 0.7168,1.06836 0.59765,0.95703 0.58984,1.07422 0.59767,0.94922 0.58984,0.95702 0.71875,1.07618 0.59765,0.95704 0.58985,1.07617 0.59766,0.94921 0.58984,1.07618 0.71874,0.95508 0.59767,1.06836 0.58984,0.95702 0.59765,-0.95702 0.59766,-1.06836 0.71094,-0.95508 0.5957,-1.07618 0.5918,-0.94921 0.59765,-1.07617 0.71095,-0.95704 0.59765,-1.07618 0.59765,-0.95702 0.58984,-0.94922 0.7168,-1.07422 0.5918,-0.95703 0.59766,-1.06836 0.5957,-0.95703 0.71094,-1.07617 0.59765,-0.95508 0.59961,-1.07032 0.5879,-0.95703 0.60156,-0.95508 0.70898,-1.06836 0.59766,-0.95702 0.5957,-1.07422 0.59375,-0.95704 0.71484,-1.06836 0.5918,-0.95702 0.59571,-0.95508 0.59961,-1.07812 0.70899,-0.94727 0.5996,-1.07813 0.58789,-0.95508 0.59961,-1.07616 0.71679,-0.94923 0.5918,-1.07421 0.59571,-0.95899 h 1.18945 1.18945 1.07422 1.18945 1.18751 1.18749 1.07617 1.18946 1.1875 1.18946 1.07421 1.18945 1.18751 1.18945 1.07422 1.18945 1.18751 1.18944 1.07617 1.18751 1.18749 v 1.19727 1.1953 1.19532 1.19531 1.19532 1.19531 1.1953 1.19532 1.19531 1.19532 1.19531 1.19532 1.1953 1.19532 1.19531 1.19531 1.19726 1.19336 1.07618 1.19532 1.1953 1.19532 1.19531 1.19727 1.19336 1.19726 1.19336 1.19531 1.19532 1.19727 1.19334 1.18946 1.19532 1.1953 1.19532 1.19531 1.19532 1.19531 1.19532 1.1953 1.19531 1.19532 1.19727 1.19336 1.1953 1.19532 1.19531 1.19532 1.19531 1.1953 1.19727 1.19532 1.19336 1.19727 1.07421 1.19727 1.19336 1.1953 1.19532 1.19531 1.19727 1.19532 1.1953 1.19531 1.19532 1.19531 1.19532 1.19336 1.19726 1.18946 1.19336 1.19726 1.19531 h -1.18749 -1.18751 -1.18945 -1.31446 -1.18749 -1.18945 -1.18751 -1.19725 -1.18751 -1.3086 -1.18749 -1.18946 -1.19336 -1.18945 -1.18749 -1.3086 -1.19531 -1.18751 -1.18945 v -1.19531 -1.19726 -1.19336 -1.19727 -1.20313 -1.19336 -1.19727 -1.19531 -1.1953 -1.19336 -1.19727 -1.20117 -1.19532 -1.19531 -1.19531 -1.19532 -1.20312 -1.19726 -1.19336 -1.19532 -1.19531 -1.19532 -1.20312 -1.19336 -1.19727 -1.1953 -1.19532 -1.19531 -1.20312 -1.19532 -1.19531 -1.19532 -1.19336 -1.19726 -1.20118 -1.1953 -1.19531 -1.19532 -1.19531 -1.20313 -1.19531 -1.19532 -1.19725 l -0.59571,0.95703 -0.71093,1.08398 -0.59961,0.95508 -0.70899,0.95898 -0.59765,1.07422 -0.71875,0.95703 -0.58789,0.95508 -0.5996,1.08399 -0.70899,0.95508 -0.59961,0.95702 -0.71484,0.95703 -0.5918,1.08204 -0.7168,0.95703 -0.58984,0.95508 -0.59962,1.07617 -0.7168,0.96289 -0.59178,0.95703 -0.7168,1.07421 -0.58984,0.95704 -0.7168,0.95703 -0.58984,1.08203 -0.59962,0.95704 -0.71484,0.95702 -0.5918,1.07618 -0.7168,0.96289 -0.5918,0.95508 -0.7168,0.95703 -0.59765,1.07617 -0.59179,0.96093 -0.71485,0.95899 -0.5918,1.07617 -0.71679,0.95508 -0.59766,0.95508 -0.71094,1.08398 -0.59765,0.95704 h -0.47071 l -0.7168,-1.07618 -0.59765,-0.96484 -0.71093,-1.07422 -0.59766,-0.95703 -0.71094,-1.07423 -0.59766,-0.96484 -0.70898,-1.07617 -0.59766,-0.95703 -0.71874,-1.07421 -0.58984,-0.95508 -0.7168,-1.08595 -0.58984,-0.95506 -0.7168,-1.07618 -0.59962,-0.95508 -0.70898,-1.08398 -0.5996,-0.95508 -0.70899,-1.07618 -0.7168,-0.95702 -0.59765,-1.08204 -0.71095,-0.95507 -0.59765,-1.07617 -0.70899,-0.95704 -0.59765,-1.08398 -0.71094,-0.95508 -0.59765,-1.07617 -0.7168,-0.95704 -0.5918,-1.07421 -0.7168,-0.96484 -0.58984,-1.07423 -0.71874,-0.95703 -0.59571,-1.07617 -0.71093,-0.95508 -0.59962,-1.08399 -0.70898,-0.95702 v 1.19532 1.1953 1.19727 1.20117 1.19531 1.19532 1.19531 1.19726 1.20118 1.1953 1.07618 1.19532 1.1953 1.19532 1.20116 1.19727 1.19336 1.19532 1.19531 1.19726 1.20118 1.1953 1.19727 1.19336 1.19727 1.19336 1.20313 1.19531 1.19532 1.1953 1.19531 1.20117 1.07814 1.19336 1.1953 1.19531 1.19727 1.19336 1.20313 1.19727 1.19336 1.19726 1.19531 h -1.1875 -1.19532 -1.18945 -1.18749 -1.18751 -1.19531 -1.18945 -1.18751 -1.18945 -1.19531 -1.1875 -1.18946 -1.18749 -1.19532 -1.18749 -1.18946 -1.18945 -1.19531 -1.1875 v -1.19531 -1.19726 -1.19336 -1.18946 -1.19726 -1.19336 -1.19532 -1.19531 -1.19532 -1.19531 -1.1953 -1.19532 -1.19727 -1.19531 -1.19532 -1.1953 -1.19336 -1.19727 -1.07421 -1.19727 -1.19336 -1.19532 -1.19727 -1.1953 -1.19531 -1.19532 -1.19531 -1.19532 -1.1953 -1.19336 -1.19727 -1.19532 -1.19531 -1.1953 -1.19532 -1.19531 -1.19532 -1.19531 -1.19532 -1.1953 -1.19532 -1.18946 -1.19334 -1.19727 -1.19532 -1.19531 -1.19336 -1.19726 -1.19336 -1.19727 -1.19531 -1.19532 -1.1953 -1.19532 -1.07618 -1.19336 -1.19726 -1.19531 -1.19531 -1.19532 -1.1953 -1.19532 -1.19531 -1.19532 -1.19531 -1.19532 -1.1953 -1.19531 -1.19532 -1.19531 -1.19532 -1.1953 z m 108.61133,0 h 1.18749 1.18945 1.19336 1.18751 1.18945 1.1875 1.19726 1.18751 1.18749 1.18946 1.19532 1.18945 1.18555 1.18945 1.07421 1.18946 1.18945 1.18945 1.19336 1.1875 1.18945 1.18945 1.19336 1.18946 1.1875 1.18946 1.1953 1.18751 1.18945 1.1875 1.19532 1.18945 1.18749 1.18751 1.18945 1.19531 1.18945 1.18751 1.18749 1.19532 1.18946 1.18749 1.1875 1.07812 1.1875 1.1875 1.18946 1.1953 1.18751 1.18749 1.18946 1.19532 1.18749 1.18945 1.18751 1.19531 1.18945 1.18751 v 1.19727 1.07617 1.19336 1.19727 1.19336 1.07616 1.19726 1.19532 1.07422 1.19726 1.19336 1.07812 1.19532 1.19336 1.19727 1.07421 1.19727 h -1.18751 -1.18945 -1.19531 -1.18751 -1.18945 -1.18749 -1.07618 -1.1875 -1.1875 -1.18945 -1.19532 -1.18749 -1.18946 -1.1875 -1.19726 -1.1875 -1.18749 -1.18946 -1.19532 -1.06836 -1.18945 -1.18749 -1.19532 -1.1875 -1.18945 -1.18751 -1.1953 -1.18946 -1.1875 -1.1875 -1.19726 -1.18751 -1.06836 -1.18945 -1.19336 -1.18944 -1.18751 -1.18945 -1.19531 v 1.19336 1.19532 1.19531 1.1953 1.19727 1.07423 1.1953 1.19532 1.19531 1.19532 1.19531 1.19726 h 1.19531 1.18945 1.18751 1.18944 1.19336 1.18945 1.18751 1.18945 1.07617 1.1875 1.1875 1.18946 1.1953 1.18751 1.18945 1.1875 1.19532 1.18749 1.18945 1.18751 1.19531 1.1875 1.18946 1.18945 1.1953 1.18751 1.07031 1.18749 1.19532 1.18945 1.1875 1.1875 1.19531 1.18945 1.18751 v 1.19336 1.07618 1.18945 1.19531 1.07617 1.19336 1.19727 1.07617 1.19531 1.19532 1.1953 1.07423 1.19531 1.1953 1.07814 1.19336 h -1.18751 -1.18945 -1.19531 -1.1875 -1.1875 -1.18945 -1.19532 -1.18749 -1.07031 -1.18751 -1.1953 -1.18945 -1.18946 -1.1875 -1.19531 -1.18751 -1.18945 -1.18749 -1.19532 -1.1875 -1.18945 -1.18751 -1.1953 -1.18946 -1.1875 -1.1875 -1.07617 -1.18945 -1.18751 -1.18945 -1.19336 -1.18944 -1.18751 -1.18945 -1.19531 v 1.1953 1.31642 1.1953 1.19532 1.31446 1.1953 1.19531 1.31445 1.19532 1.19531 1.31445 1.19532 h 1.19531 1.18945 1.18751 1.18944 1.19336 1.18945 1.18751 1.18945 1.19531 1.30664 1.18945 1.18751 1.1953 1.18946 1.1875 1.18946 1.19336 1.18945 1.18749 1.18946 1.1875 1.19531 1.18945 1.18751 1.18749 1.19727 1.1875 1.18946 1.18749 1.31445 1.18946 1.18554 1.18946 1.19726 1.18751 1.18749 1.18946 1.19336 1.18945 v 1.19531 1.07617 1.19727 1.19336 1.19727 1.07617 1.19336 1.19531 1.07617 1.19531 1.19532 1.07617 1.18945 1.19336 1.19531 1.07813 1.19531 h -1.18945 -1.19336 -1.18946 -1.18749 -1.18751 -1.19726 -1.18946 -1.18554 -1.18946 -1.31445 -1.18749 -1.18946 -1.1875 -1.19727 -1.18749 -1.18751 -1.18945 -1.19531 -1.1875 -1.18946 -1.18749 -1.18945 -1.19336 -1.18946 -1.1875 -1.18946 -1.1953 -1.18751 -1.18945 -1.30664 -1.19531 -1.18945 -1.18751 -1.18945 -1.19336 -1.18944 -1.18751 -1.18945 -1.19531 -1.18751 -1.18945 -1.18749 -1.19727 -1.18555 -1.18945 -1.18945 -1.19336 -1.18946 -1.3086 -1.18749 -1.18751 -1.19726 -1.1875 -1.18945 -1.18751 -1.19336 -1.18945 -1.18749 v -1.19531 -1.19726 -1.19336 -1.18946 -1.19726 -1.19336 -1.19532 -1.19531 -1.19532 -1.19531 -1.1953 -1.19532 -1.19727 -1.19531 -1.19532 -1.1953 -1.19336 -1.19727 -1.07421 -1.19727 -1.19336 -1.19532 -1.19727 -1.1953 -1.19531 -1.19532 -1.19531 -1.19532 -1.1953 -1.19336 -1.19727 -1.19532 -1.19531 -1.1953 -1.19532 -1.19531 -1.19532 -1.19531 -1.19532 -1.1953 -1.19532 -1.18946 -1.19334 -1.19727 -1.19532 -1.19531 -1.19336 -1.19726 -1.19336 -1.19727 -1.19531 -1.19532 -1.1953 -1.19532 -1.07618 -1.19336 -1.19726 -1.19531 -1.19531 -1.19532 -1.1953 -1.19532 -1.19531 -1.19532 -1.19531 -1.19532 -1.1953 -1.19531 -1.19532 -1.19531 -1.19532 -1.1953 z m -166.36133,26.83399 -0.47071,1.07617 -0.35741,1.08203 -0.47852,1.19726 -0.47852,1.08203 -0.35351,1.07423 -0.47657,1.07812 -0.47851,1.20117 -0.47071,1.07617 -0.35937,1.07618 -0.47852,1.08202 -0.47852,1.07618 -0.35156,1.1953 -0.47851,1.08399 -0.47852,1.07423 -0.35742,1.07617 -0.4707,1.08203 -0.47852,1.1953 -0.47852,1.07618 -0.34961,1.08398 -0.47851,1.07618 -0.47852,1.1953 -0.35937,1.08204 -0.47071,1.07618 h 1.18751 1.18749 1.18946 1.19532 1.18749 1.18945 1.18946 1.19532 1.06836 1.18749 1.19532 1.18945 1.1875 1.18945 1.18751 1.1953 1.1875 l -0.47656,-1.07618 -0.35938,-1.08204 -0.4707,-1.1953 -0.47851,-1.07618 -0.35937,-1.08398 -0.47071,-1.07618 -0.47656,-1.1953 -0.36133,-1.08203 -0.47852,-1.07617 -0.46875,-1.07423 -0.35937,-1.08399 -0.47852,-1.1953 -0.35156,-1.07618 -0.47852,-1.08202 -0.47851,-1.07618 -0.35743,-1.07617 -0.47265,-1.20117 -0.47656,-1.07812 -0.35937,-1.07423 -0.47852,-1.08203 -0.47071,-1.19726 -0.35741,-1.08203 z M 250.71019,648.08368 H 501.44848 L 373.468,690.28876 Z" /></svg>
