<?xml version="1.0" encoding="UTF-8" standalone="no"?>
<svg
   viewBox="0 0 512 512"
   version="1.1"
   id="svg150"
   sodipodi:docname="steam.svg"
   width="512"
   height="512"
   inkscape:version="1.2.2 (732a01da63, 2022-12-09)"
   xmlns:inkscape="http://www.inkscape.org/namespaces/inkscape"
   xmlns:sodipodi="http://sodipodi.sourceforge.net/DTD/sodipodi-0.dtd"
   xmlns="http://www.w3.org/2000/svg"
   xmlns:svg="http://www.w3.org/2000/svg">
  <defs
     id="defs154" />
  <sodipodi:namedview
     id="namedview152"
     pagecolor="#ffffff"
     bordercolor="#666666"
     borderopacity="1.0"
     inkscape:showpageshadow="2"
     inkscape:pageopacity="0.0"
     inkscape:pagecheckerboard="0"
     inkscape:deskcolor="#d1d1d1"
     showgrid="false"
     inkscape:zoom="0.4609375"
     inkscape:cx="94.372881"
     inkscape:cy="257.08475"
     inkscape:window-width="2560"
     inkscape:window-height="1369"
     inkscape:window-x="1912"
     inkscape:window-y="-8"
     inkscape:window-maximized="1"
     inkscape:current-layer="svg150" />
  <!--! Font Awesome Pro 6.4.0 by @fontawesome - https://fontawesome.com License - https://fontawesome.com/license (Commercial License) Copyright 2023 Fonticons, Inc. -->
  <path
     d="M 504,256 C 504,393 392.8,504 255.6,504 141.8,504 46,427.7 16.6,323.6 l 95.2,39.3 c 6.4,32.1 34.9,56.4 68.9,56.4 39.2,0 71.9,-32.4 70.2,-73.5 l 84.5,-60.2 c 52.1,1.3 95.8,-40.9 95.8,-93.5 0,-51.6 -42,-93.5 -93.7,-93.5 -51.7,0 -93.7,42 -93.7,93.5 v 1.2 L 184.6,279 c -15.5,-0.9 -30.7,3.4 -43.5,12.1 L 8,236.1 C 18.2,108.4 125.1,8 255.6,8 392.8,8 504,119 504,256 Z M 163.7,384.3 133.2,371.7 a 52.79,52.79 0 0 0 27.2,25.8 c 26.9,11.2 57.8,-1.6 69,-28.4 5.4,-13 5.5,-27.3 0.1,-40.3 -5.4,-13 -15.5,-23.2 -28.5,-28.6 -12.9,-5.4 -26.7,-5.2 -38.9,-0.6 l 31.5,13 c 19.8,8.2 29.2,30.9 20.9,50.7 -8.3,19.9 -31,29.2 -50.8,21 z M 337.5,254.4 c -34.4,0 -62.4,-28 -62.4,-62.3 0,-34.3 28,-62.3 62.4,-62.3 34.4,0 62.4,28 62.4,62.3 0,34.3 -27.9,62.3 -62.4,62.3 z m 0.1,-15.6 c 25.9,0 46.9,-21 46.9,-46.8 0,-25.9 -21,-46.8 -46.9,-46.8 -25.9,0 -46.9,21 -46.9,46.8 0.1,25.8 21.1,46.8 46.9,46.8 z"
     id="path148"
     style="fill:#ffffff" />
</svg>
