<?xml version="1.0" encoding="UTF-8" standalone="no"?>
<svg
   viewBox="0 0 512 512"
   version="1.1"
   id="svg275"
   sodipodi:docname="xbox.svg"
   inkscape:version="1.2.2 (732a01da63, 2022-12-09)"
   xmlns:inkscape="http://www.inkscape.org/namespaces/inkscape"
   xmlns:sodipodi="http://sodipodi.sourceforge.net/DTD/sodipodi-0.dtd"
   xmlns="http://www.w3.org/2000/svg"
   xmlns:svg="http://www.w3.org/2000/svg">
  <defs
     id="defs279" />
  <sodipodi:namedview
     id="namedview277"
     pagecolor="#ffffff"
     bordercolor="#666666"
     borderopacity="1.0"
     inkscape:showpageshadow="2"
     inkscape:pageopacity="0.0"
     inkscape:pagecheckerboard="0"
     inkscape:deskcolor="#d1d1d1"
     showgrid="false"
     inkscape:zoom="0.4609375"
     inkscape:cx="139.9322"
     inkscape:cy="257.08475"
     inkscape:window-width="2560"
     inkscape:window-height="1369"
     inkscape:window-x="1912"
     inkscape:window-y="-8"
     inkscape:window-maximized="1"
     inkscape:current-layer="svg275" />
  <!--! Font Awesome Pro 6.4.0 by @fontawesome - https://fontawesome.com License - https://fontawesome.com/license (Commercial License) Copyright 2023 Fonticons, Inc. -->
  <path
     d="M369.9 318.2c44.3 54.3 64.7 98.8 54.4 118.7-7.9 15.1-56.7 44.6-92.6 55.9-29.6 9.3-68.4 13.3-100.4 10.2-38.2-3.7-76.9-17.4-110.1-39C93.3 445.8 87 438.3 87 423.4c0-29.9 32.9-82.3 89.2-142.1 32-33.9 76.5-73.7 81.4-72.6 9.4 2.1 84.3 75.1 112.3 109.5zM188.6 143.8c-29.7-26.9-58.1-53.9-86.4-63.4-15.2-5.1-16.3-4.8-28.7 8.1-29.2 30.4-53.5 79.7-60.3 122.4-5.4 34.2-6.1 43.8-4.2 60.5 5.6 50.5 17.3 85.4 40.5 120.9 9.5 14.6 12.1 17.3 9.3 9.9-4.2-11-.3-37.5 9.5-64 14.3-39 53.9-112.9 120.3-194.4zm311.6 63.5C483.3 127.3 432.7 77 425.6 77c-7.3 0-24.2 6.5-36 13.9-23.3 14.5-41 31.4-64.3 52.8C367.7 197 427.5 283.1 448.2 346c6.8 20.7 9.7 41.1 7.4 52.3-1.7 8.5-1.7 8.5 1.4 4.6 6.1-7.7 19.9-31.3 25.4-43.5 7.4-16.2 15-40.2 18.6-58.7 4.3-22.5 3.9-70.8-.8-93.4zM141.3 43C189 40.5 251 77.5 255.6 78.4c.7.1 10.4-4.2 21.6-9.7 63.9-31.1 94-25.8 107.4-25.2-63.9-39.3-152.7-50-233.9-11.7-23.4 11.1-24 11.9-9.4 11.2z"
     id="path273"
     style="fill:#ffffff" />
</svg>
